<?xml version="1.0" standalone="no"?>
<!DOCTYPE svg PUBLIC "-//W3C//DTD SVG 20010904//EN"
 "http://www.w3.org/TR/2001/REC-SVG-20010904/DTD/svg10.dtd">
<svg version="1.0" xmlns="http://www.w3.org/2000/svg"
 width="300.000000pt" height="202.000000pt" viewBox="0 0 300.000000 202.000000"
 preserveAspectRatio="xMidYMid meet">
<metadata>
Created by potrace 1.10, written by Peter Selinger 2001-2011
</metadata>
<g transform="translate(0.000000,202.000000) scale(0.100000,-0.100000)"
fill="#000000" stroke="none">
<path d="M173 1835 l-173 -180 97 -97 c54 -54 103 -98 109 -98 7 0 19 11 28
25 9 14 20 25 24 25 4 0 6 -326 4 -724 l-2 -725 145 -3 145 -3 0 980 0 980
-102 0 -101 0 -174 -180z m332 -790 l0 -940 -94 -3 c-69 -2 -97 1 -103 10 -4
7 -8 321 -8 697 0 678 0 685 -21 707 -18 19 -24 20 -50 11 -28 -11 -32 -9
-100 60 l-72 71 158 166 158 167 66 -3 66 -3 0 -940z"/>
<path d="M1893 2000 c-329 -46 -599 -241 -747 -537 -73 -145 -99 -265 -99
-443 1 -100 6 -145 27 -225 95 -370 387 -644 767 -721 112 -23 321 -15 434 16
160 44 296 122 424 244 122 118 199 243 257 416 27 81 28 94 29 275 0 169 -3
199 -23 270 -98 339 -365 597 -710 686 -88 22 -268 32 -359 19z m302 -50 c328
-64 591 -287 705 -598 40 -110 74 -292 66 -357 -45 -371 -231 -651 -531 -800
-144 -72 -221 -88 -410 -89 -188 -1 -271 17 -420 89 -351 172 -561 559 -515
945 26 207 114 391 260 541 226 231 533 329 845 269z"/>
<path d="M1864 1745 c-179 -39 -371 -175 -463 -328 -259 -434 -34 -972 460
-1098 75 -19 258 -17 336 4 138 38 258 111 356 218 75 81 119 151 152 246 143
410 -90 846 -510 953 -91 23 -237 26 -331 5z m309 -41 c194 -44 363 -174 454
-350 64 -123 77 -179 77 -324 0 -108 -4 -136 -27 -205 -105 -315 -412 -515
-731 -476 -402 49 -678 421 -602 811 42 217 206 422 401 505 129 54 294 69
428 39z"/>
<path d="M740 283 c-23 -9 -60 -45 -76 -75 -20 -38 -17 -82 6 -128 20 -39 34
-51 84 -70 37 -14 32 -4 -13 26 -71 47 -85 136 -32 193 75 81 211 25 211 -86
0 -43 -35 -92 -83 -113 -23 -11 -37 -20 -32 -21 69 -9 135 59 135 141 0 83
-59 141 -141 139 -24 0 -51 -3 -59 -6z"/>
</g>
</svg>
